<?xml version="1.0" encoding="UTF-8" standalone="no"?>
<!-- Created with Inkscape (http://www.inkscape.org/) -->
<svg
   xmlns:dc="http://purl.org/dc/elements/1.1/"
   xmlns:cc="http://creativecommons.org/ns#"
   xmlns:rdf="http://www.w3.org/1999/02/22-rdf-syntax-ns#"
   xmlns:svg="http://www.w3.org/2000/svg"
   xmlns="http://www.w3.org/2000/svg"
   xmlns:xlink="http://www.w3.org/1999/xlink"
   xmlns:sodipodi="http://sodipodi.sourceforge.net/DTD/sodipodi-0.dtd"
   xmlns:inkscape="http://www.inkscape.org/namespaces/inkscape"
   width="90"
   height="90"
   id="svg2"
   sodipodi:version="0.32"
   inkscape:version="0.46"
   version="1.0"
   sodipodi:docbase="/home/tweenk/dev/GartoonRedux/scalable/apps"
   sodipodi:docname="log-scale.svg"
   inkscape:output_extension="org.inkscape.output.svg.inkscape">
  <defs
     id="defs4">
    <inkscape:perspective
       sodipodi:type="inkscape:persp3d"
       inkscape:vp_x="0 : 45 : 1"
       inkscape:vp_y="0 : 1000 : 0"
       inkscape:vp_z="90 : 45 : 1"
       inkscape:persp3d-origin="45 : 30 : 1"
       id="perspective27" />
  </defs>
  <sodipodi:namedview
     id="base"
     pagecolor="#ffffff"
     bordercolor="#666666"
     borderopacity="1.0"
     gridtolerance="10000"
     guidetolerance="10"
     objecttolerance="10"
     inkscape:pageopacity="0.0"
     inkscape:pageshadow="2"
     inkscape:zoom="4.5222222"
     inkscape:cx="42.649915"
     inkscape:cy="45.35602"
     inkscape:document-units="px"
     inkscape:current-layer="layer1"
     width="90px"
     height="90px"
     inkscape:window-width="795"
     inkscape:window-height="667"
     inkscape:window-x="106"
     inkscape:window-y="1"
     showgrid="false" />
  <metadata
     id="metadata7">
    <rdf:RDF>
      <cc:Work
         rdf:about="">
        <dc:format>image/svg+xml</dc:format>
        <dc:type
           rdf:resource="http://purl.org/dc/dcmitype/StillImage" />
      </cc:Work>
    </rdf:RDF>
  </metadata>
  <g
     inkscape:label="Layer 1"
     inkscape:groupmode="layer"
     id="layer1">
    <rect
       style="color:#000000;fill:#ffffff;fill-opacity:1;fill-rule:evenodd;stroke:#383e49;stroke-width:4.5;stroke-linecap:butt;stroke-linejoin:miter;marker:none;marker-start:none;marker-mid:none;marker-end:none;stroke-miterlimit:4;stroke-dasharray:none;stroke-dashoffset:0;stroke-opacity:1;visibility:visible;display:inline;overflow:visible;enable-background:accumulate"
       id="rect2160"
       width="79.828011"
       height="79.38575"
       x="5.528255"
       y="5.3071256" />
    <path
       style="color:#000000;fill:none;fill-opacity:1;fill-rule:evenodd;stroke:#383e49;stroke-width:0.80000001;stroke-linecap:butt;stroke-linejoin:miter;marker:none;marker-start:none;marker-mid:none;marker-end:none;stroke-miterlimit:4;stroke-dasharray:none;stroke-dashoffset:0;stroke-opacity:1;visibility:visible;display:inline;overflow:visible;enable-background:accumulate"
       d="M 7.9458901,6.8402393 L 84.707672,6.8402393"
       id="path3134"
       inkscape:tile-w="78.380538"
       inkscape:tile-h="1.6483516"
       inkscape:tile-cx="44.55774"
       inkscape:tile-cy="7.0761674" />
    <g
       id="g4155"
       transform="translate(1.7690417,-1.1056511)">
      <use
         height="90"
         width="90"
         id="use4121"
         xlink:href="#path3134"
         inkscape:tiled-clone-of="#path3134"
         y="0"
         x="0"
         transform="translate(-2.6535626,0.8845209)" />
      <use
         height="90"
         width="90"
         id="use4123"
         transform="translate(-2.6535626,13.59715)"
         xlink:href="#path3134"
         inkscape:tiled-clone-of="#path3134"
         y="0"
         x="0" />
      <use
         height="90"
         width="90"
         id="use4125"
         transform="translate(-2.6535626,26.30978)"
         xlink:href="#path3134"
         inkscape:tiled-clone-of="#path3134"
         y="0"
         x="0" />
      <use
         height="90"
         width="90"
         id="use4127"
         transform="translate(-2.6535626,39.022409)"
         xlink:href="#path3134"
         inkscape:tiled-clone-of="#path3134"
         y="0"
         x="0" />
      <use
         height="90"
         width="90"
         id="use4129"
         transform="translate(-2.6535626,51.73504)"
         xlink:href="#path3134"
         inkscape:tiled-clone-of="#path3134"
         y="0"
         x="0" />
      <use
         height="90"
         width="90"
         id="use4131"
         transform="translate(-2.6535626,64.447669)"
         xlink:href="#path3134"
         inkscape:tiled-clone-of="#path3134"
         y="0"
         x="0" />
      <use
         height="90"
         width="90"
         id="use4133"
         transform="translate(-2.6535626,77.160298)"
         xlink:href="#path3134"
         inkscape:tiled-clone-of="#path3134"
         y="0"
         x="0" />
    </g>
    <g
       transform="matrix(0,-1,1,0,-0.4203883,88.430216)"
       id="g5133">
      <use
         x="0"
         y="0"
         inkscape:tiled-clone-of="#path3134"
         xlink:href="#path3134"
         id="use5135"
         width="90"
         height="90"
         transform="translate(-2.6535626,0.8845209)" />
      <use
         x="0"
         y="0"
         inkscape:tiled-clone-of="#path3134"
         xlink:href="#path3134"
         transform="translate(-2.6535626,13.59715)"
         id="use5137"
         width="90"
         height="90" />
      <use
         x="0"
         y="0"
         inkscape:tiled-clone-of="#path3134"
         xlink:href="#path3134"
         transform="translate(-2.6535626,26.30978)"
         id="use5139"
         width="90"
         height="90" />
      <use
         x="0"
         y="0"
         inkscape:tiled-clone-of="#path3134"
         xlink:href="#path3134"
         transform="translate(-2.6535626,39.022409)"
         id="use5141"
         width="90"
         height="90" />
      <use
         x="0"
         y="0"
         inkscape:tiled-clone-of="#path3134"
         xlink:href="#path3134"
         transform="translate(-2.6535626,51.73504)"
         id="use5143"
         width="90"
         height="90" />
      <use
         x="0"
         y="0"
         inkscape:tiled-clone-of="#path3134"
         xlink:href="#path3134"
         transform="translate(-2.6535626,64.447669)"
         id="use5145"
         width="90"
         height="90" />
      <use
         x="0"
         y="0"
         inkscape:tiled-clone-of="#path3134"
         xlink:href="#path3134"
         transform="translate(-2.6535626,77.160298)"
         id="use5147"
         width="90"
         height="90" />
    </g>
    <path
       style="opacity:1;color:#000000;fill:none;fill-opacity:1;fill-rule:evenodd;stroke:#ff0000;stroke-width:4;stroke-linecap:butt;stroke-linejoin:miter;marker:none;marker-start:none;marker-mid:none;marker-end:none;stroke-miterlimit:4;stroke-dasharray:none;stroke-dashoffset:0;stroke-opacity:1;visibility:visible;display:inline;overflow:visible;enable-background:accumulate"
       d="M 12.825552,76.289926 L 25.872235,34.938575 L 38.918918,42.014741 L 49.975429,24.987715 L 62.800982,43.562654 L 78.501228,15.921376"
       id="path5149"
       sodipodi:nodetypes="cccccc" />
    <path
       style="opacity:1;color:#000000;fill:none;fill-opacity:1;fill-rule:evenodd;stroke:#558ada;stroke-width:4;stroke-linecap:butt;stroke-linejoin:miter;marker:none;marker-start:none;marker-mid:none;marker-end:none;stroke-miterlimit:4;stroke-dasharray:none;stroke-dashoffset:0;stroke-opacity:1;visibility:visible;display:inline;overflow:visible;enable-background:accumulate"
       d="M 17.690417,76.953317 L 30.7371,57.936118 L 42.678132,67.665848 L 54.398034,52.186732 L 67.223587,57.493857 L 78.501228,55.945945"
       id="path6120"
       sodipodi:nodetypes="cccccc" />
    <path
       style="font-size:31.68058205px;font-style:normal;font-weight:normal;fill:#000000;fill-opacity:1;stroke:none;stroke-width:1px;stroke-linecap:butt;stroke-linejoin:miter;stroke-opacity:1;font-family:Bitstream Vera Sans"
       d="M 28.112524,55.679451 C 27.720637,55.349444 27.411256,55.10194 27.184382,54.936938 C 26.978124,54.79256 26.782183,54.720371 26.596559,54.720371 C 26.555304,54.720371 26.472802,54.730683 26.349055,54.751309 C 26.245923,54.771934 26.019045,54.802872 25.668417,54.844123 C 25.544661,54.740996 25.472473,54.658495 25.451851,54.596619 C 25.431222,54.534743 25.420909,54.483179 25.420913,54.441929 C 25.132154,54.668807 24.915588,54.782247 24.771213,54.782247 C 24.668084,54.782247 24.575269,54.720371 24.49277,54.596619 C 24.430892,54.472866 24.379329,54.2563 24.33808,53.946919 L 24.090576,53.946919 C 24.049323,53.740666 23.935883,53.173469 23.750257,52.245326 C 23.585252,51.296561 23.378999,50.141541 23.131495,48.780262 C 22.88399,47.398369 22.61586,45.882405 22.327106,44.232366 C 22.058976,42.561722 21.811471,40.891068 21.584592,39.220399 C 21.337088,37.529135 21.141147,35.910044 20.996769,34.363122 C 20.831767,32.81624 20.749265,31.475592 20.749264,30.341173 C 20.749265,29.186177 20.914268,28.237411 21.244273,27.494871 C 21.801159,27.391771 22.213666,27.298957 22.481796,27.216428 C 22.770551,27.113329 22.987117,27.020515 23.131495,26.937986 C 23.296497,26.855512 23.440875,26.793636 23.564628,26.752357 C 23.688379,26.711134 23.88432,26.690509 24.152452,26.690481 C 24.379329,26.690509 24.668084,26.742072 25.018718,26.845172 C 25.389971,26.9277 25.895292,27.082391 26.534683,27.309243 L 26.534683,27.649561 C 26.637805,27.649588 26.740932,28.010532 26.844064,28.732394 C 26.947186,29.433681 27.050312,30.361823 27.153444,31.51682 C 27.256566,32.671863 27.370005,34.002198 27.493763,35.507831 C 27.638135,36.992875 27.782513,38.519152 27.926896,40.086665 C 28.091893,41.633581 28.277521,43.17017 28.483781,44.696437 C 28.710654,46.202098 28.958158,47.563371 29.226295,48.780262 C 29.515043,49.976538 29.834736,50.966556 30.185375,51.750317 C 30.535998,52.513457 30.938192,52.936277 31.39196,53.018777 C 31.330074,53.451911 31.299136,53.79223 31.299146,54.039734 C 31.319762,54.287238 31.257886,54.41099 31.113517,54.41099 C 31.031007,54.41099 30.938192,54.328489 30.835074,54.163486 C 30.855691,54.204737 30.866004,54.287238 30.866013,54.41099 C 30.866004,54.699745 30.804128,54.926624 30.680384,55.091628 C 30.556623,55.277255 30.412246,55.41132 30.247251,55.493823 C 30.08224,55.596948 29.917237,55.669137 29.752242,55.710389 C 29.607857,55.751639 29.50473,55.772264 29.442861,55.772265 C 29.422229,55.772264 29.411916,55.761951 29.411923,55.741327 L 29.411923,55.710389 C 29.246913,55.772264 28.937533,55.803202 28.483781,55.803204 L 28.112524,55.679451 M 30.247251,40.550736 C 30.659758,39.931989 31.165079,39.333853 31.763217,38.756328 C 32.381975,38.178833 33.103863,37.601323 33.928881,37.023796 L 33.897943,37.023796 C 34.681703,36.487554 35.527342,36.116298 36.434865,35.910026 C 37.342374,35.683165 38.353017,35.569726 39.466796,35.569707 L 39.466796,35.35314 C 40.642431,35.353159 41.766513,35.507849 42.839045,35.817211 C 43.932176,36.12661 44.953131,36.570055 45.901914,37.147548 C 46.850664,37.70445 47.706617,38.3954 48.469774,39.220399 C 49.253518,40.045428 49.91353,40.973569 50.44981,42.004825 C 50.532291,41.963587 50.594167,41.942961 50.635438,41.942949 C 50.75917,41.942961 50.882922,42.077026 51.006695,42.345144 C 51.151051,42.613285 51.274804,42.943291 51.377952,43.335162 C 51.501682,43.706429 51.594497,44.108624 51.656395,44.541747 C 51.738874,44.954264 51.780125,45.32552 51.780147,45.655517 C 51.780125,47.016799 51.388243,48.295572 50.6045,49.491838 C 49.820716,50.667488 48.820386,51.698756 47.603508,52.585644 C 46.407219,53.472537 45.097509,54.173799 43.674373,54.689433 C 42.251209,55.205067 40.900248,55.462884 39.621486,55.462885 C 38.218952,55.462884 36.733926,55.112253 35.166404,54.41099 L 35.197342,54.41099 C 34.289821,53.998483 33.444181,53.482849 32.660421,52.864087 C 31.876654,52.224702 31.196017,51.513128 30.618508,50.72936 C 30.040997,49.924975 29.587239,49.05871 29.257233,48.130563 C 28.927228,47.202428 28.762225,46.233036 28.762224,45.222384 C 28.762225,43.696117 29.257234,42.138902 30.247251,40.550736 M 39.373982,50.667484 C 39.951482,50.79124 40.528992,50.853116 41.106513,50.853113 C 41.890265,50.853116 42.519339,50.667488 42.993736,50.296227 C 43.468105,49.924975 43.839362,49.48153 44.107506,48.96589 C 44.375621,48.429636 44.550937,47.883064 44.633453,47.326173 C 44.71594,46.74867 44.75719,46.253661 44.757205,45.841146 C 44.75719,44.809886 44.674689,44.046748 44.509701,43.551728 C 44.344683,43.056731 44.13843,42.675162 43.89094,42.40702 C 43.643421,42.138902 43.364979,41.922336 43.055612,41.75732 C 42.766843,41.59233 42.488401,41.324201 42.220284,40.952931 C 42.055268,40.684814 41.890265,40.499186 41.725275,40.396045 C 41.622136,40.499186 41.519009,40.561062 41.415894,40.581674 C 41.333381,40.581688 41.240567,40.592 41.137451,40.612612 C 41.054938,40.633251 40.951812,40.664189 40.828071,40.705426 C 40.724933,40.726065 40.611493,40.798254 40.487752,40.921993 C 40.467116,40.798254 40.425865,40.633251 40.364,40.426984 C 40.302113,40.220744 40.219611,39.942302 40.116495,39.591656 L 40.085557,39.498842 C 40.085547,39.519482 40.033983,39.560732 39.930867,39.622594 C 39.848355,39.663859 39.745228,39.715423 39.621486,39.777284 C 39.497724,39.818549 39.373972,39.8598 39.250229,39.901036 C 39.126467,39.942302 39.033653,39.962927 38.971787,39.962913 L 38.940849,39.931974 L 38.971787,39.962913 C 38.930527,39.921676 38.899589,39.870113 38.878972,39.808222 C 38.858338,39.725735 38.8274,39.653547 38.786158,39.591656 L 38.786158,39.622594 C 38.621146,39.333853 38.322078,39.189476 37.888954,39.189461 C 37.167058,39.189476 36.537985,39.612296 36.001732,40.457922 C 35.465466,41.303575 35.197337,42.489533 35.197342,44.015799 C 35.197337,44.861449 35.310776,45.707089 35.537661,46.552721 C 35.785159,47.377743 36.146103,48.151194 36.620493,48.873076 L 36.589555,48.873076 C 37.208309,49.759972 38.13645,50.358107 39.373982,50.667484 M 62.701285,53.482848 C 62.680649,53.441599 62.670336,53.420973 62.670347,53.420972 L 62.701285,53.482848 M 61.587515,53.885043 C 60.411859,54.751309 59.566219,55.390695 59.050593,55.803204 C 58.555577,56.215709 58.308073,56.473526 58.308079,56.576655 C 58.308073,56.597278 58.318385,56.607591 58.339017,56.607593 C 58.462763,56.607591 58.76183,56.494152 59.236221,56.267275 C 59.731222,56.040394 60.360296,55.741326 61.123444,55.370071 C 61.061558,55.390695 60.979056,55.401008 60.875939,55.401009 C 60.710927,55.401008 60.628425,55.339132 60.628434,55.21538 C 60.628425,54.967875 60.948118,54.52443 61.587515,53.885043 M 55.89491,61.526746 C 55.069891,61.382361 54.492381,61.114232 54.162378,60.722356 C 53.852995,60.351094 53.698305,59.907648 53.698307,59.392019 C 53.698305,58.958882 53.811744,58.494811 54.038626,57.999806 C 54.286128,57.504794 54.574883,57.030411 54.904892,56.576655 C 55.25552,56.14352 55.606151,55.741326 55.956786,55.370071 C 56.328038,55.019438 56.637419,54.751309 56.884928,54.565681 C 57.153053,54.380052 57.483058,54.184111 57.874946,53.977858 C 58.266822,53.750979 58.658704,53.544725 59.050593,53.359096 C 59.463093,53.173469 59.844662,53.018779 60.195302,52.895025 C 60.566549,52.771274 60.865617,52.709398 61.092506,52.709397 C 61.216248,52.709398 61.370938,52.750649 61.556577,52.833149 L 61.309072,52.771273 C 61.329688,52.771274 61.34,52.781587 61.34001,52.802211 C 61.360626,52.802212 61.381251,52.802212 61.401886,52.802211 L 61.773143,52.987839 C 61.752507,52.94659 61.742195,52.925965 61.742205,52.925963 C 61.865947,52.967215 61.989699,53.018779 62.113462,53.080654 L 62.237214,53.049715 L 62.237214,53.14253 C 62.319705,53.183782 62.402206,53.225032 62.484719,53.266282 C 62.567209,53.286908 62.639398,53.317846 62.701285,53.359096 L 62.670347,53.420972 L 62.608471,53.359096 C 62.60846,53.400348 62.629085,53.420973 62.670347,53.420972 L 62.237214,53.823167 L 62.237214,54.194424 C 62.402206,54.194424 62.525958,54.142861 62.608471,54.039734 C 62.690961,53.915982 62.732212,53.79223 62.732223,53.668477 C 62.732212,53.585976 62.721899,53.5241 62.701285,53.482848 C 62.969404,53.730354 63.103468,53.936607 63.10348,54.10161 C 63.103468,54.287238 62.979716,54.462554 62.732223,54.627557 C 62.484708,54.79256 62.278454,54.916312 62.113462,54.998814 L 62.113462,55.21538 C 61.742195,55.442258 61.360626,55.700075 60.968753,55.988832 C 60.597487,56.277585 60.329358,56.597278 60.164363,56.947912 C 60.123104,56.98916 60.081853,57.051036 60.040611,57.13354 C 59.999352,57.216039 59.958101,57.277915 59.916859,57.319169 L 60.009673,57.319169 C 62.60846,58.309183 65.753827,58.804192 69.445784,58.804196 C 69.940775,58.804192 70.281093,58.804192 70.46674,58.804196 C 70.65235,58.804192 70.745164,58.793879 70.745183,58.773258 C 70.745164,58.175118 70.621411,57.473856 70.373926,56.669469 C 70.126403,55.885704 69.817023,55.081315 69.445784,54.2563 C 69.095135,53.431286 68.723879,52.626897 68.332014,51.843131 C 67.940115,51.05937 67.599796,50.378733 67.311057,49.801218 C 66.857284,50.110603 66.310712,50.409671 65.67134,50.698422 C 65.031939,50.966556 64.34099,51.203747 63.598489,51.409998 C 62.855964,51.595629 62.092826,51.750319 61.309072,51.874069 C 60.525299,51.977198 59.76216,52.028761 59.019655,52.028759 C 57.72025,52.028761 56.503354,51.925635 55.368963,51.719379 C 54.25519,51.492502 53.285798,51.172809 52.460784,50.760298 C 51.635769,50.347795 50.98607,49.852786 50.511686,49.275271 C 50.037304,48.677141 49.800112,48.006817 49.800111,47.264297 C 49.800112,46.439289 49.996053,45.562712 50.387934,44.634561 L 50.387934,44.665499 C 50.94482,43.242359 51.738896,41.953274 52.770165,40.79824 C 53.822057,39.622608 54.977077,38.622279 56.235229,37.797248 C 57.493371,36.951625 58.792768,36.301926 60.133425,35.848149 C 61.474065,35.373785 62.732212,35.136593 63.90787,35.136574 C 64.526618,35.136593 65.155692,35.229407 65.795092,35.415016 C 66.434464,35.580038 67.022286,35.837855 67.558562,36.188468 C 68.094805,36.539117 68.548563,36.982563 68.919837,37.518805 C 69.291076,38.034456 69.528267,38.632591 69.631412,39.313213 C 69.713896,39.97324 69.765459,40.509499 69.786103,40.921993 C 69.80671,41.334513 69.847961,41.726395 69.909855,42.097639 C 69.992338,42.468908 70.11609,42.871102 70.281112,43.304224 C 70.446096,43.737367 70.734851,44.304565 71.147378,45.005818 C 71.642367,45.892717 72.147688,46.810546 72.663343,47.759306 C 73.178956,48.708079 73.673965,49.687783 74.14837,50.698422 C 74.622731,51.688443 75.055864,52.699086 75.447769,53.730353 C 75.839627,54.761621 76.15932,55.792889 76.406849,56.82416 C 76.42745,56.927284 76.437763,57.020098 76.437787,57.102602 C 76.458388,57.185101 76.468701,57.277915 76.468725,57.381045 C 76.468701,57.999803 76.293385,58.649502 75.942778,59.330143 C 75.612748,60.010775 75.189928,60.650161 74.674318,61.248304 C 74.179286,61.846432 73.622401,62.362066 73.003662,62.795207 C 72.405505,63.228331 71.838308,63.506773 71.302068,63.630535 C 71.013293,63.692402 70.6936,63.72334 70.342988,63.723349 C 69.992338,63.743965 69.641707,63.754278 69.291094,63.754287 C 68.136056,63.754278 66.877909,63.651151 65.516649,63.444906 C 64.175987,63.259269 62.876589,63.03239 61.618453,62.764269 C 60.380921,62.516756 59.246526,62.269252 58.215265,62.021755 C 57.183991,61.794869 56.41054,61.629866 55.89491,61.526746 M 64.836012,42.097639 C 64.774122,42.097651 64.732872,42.087339 64.71226,42.066701 C 64.732872,42.087339 64.774122,42.097651 64.836012,42.097639 M 64.402879,42.190453 C 64.402866,42.16984 64.402866,42.159528 64.402879,42.159515 C 64.423491,42.159528 64.433804,42.149215 64.433817,42.128577 L 64.526631,42.066701 L 64.402879,42.190453 M 64.71226,42.066701 C 64.670996,42.046088 64.640058,42.035775 64.619445,42.035763 C 64.598807,42.035775 64.578181,42.025463 64.557569,42.004825 L 64.588507,41.973887 C 64.60912,42.035775 64.65037,42.066713 64.71226,42.066701 M 61.247196,47.635553 C 61.907198,47.346805 62.443457,47.078676 62.855975,46.831164 C 63.268471,46.583667 63.588164,46.336163 63.815056,46.08865 C 64.041922,45.820529 64.196612,45.531774 64.279127,45.222384 C 64.361615,44.892388 64.402866,44.510818 64.402879,44.077676 C 64.402866,43.953934 64.392553,43.850807 64.371941,43.768295 C 64.351303,43.665179 64.289426,43.562052 64.186312,43.458914 C 64.1863,43.500176 64.093486,43.531114 63.90787,43.551728 C 63.722229,43.551739 63.515976,43.551739 63.289108,43.551728 C 64.052235,42.561722 64.475055,42.046088 64.557569,42.004825 C 64.041922,41.819209 63.784105,41.612956 63.784117,41.386064 C 63.784105,41.28295 63.835669,41.210761 63.938808,41.169497 C 64.062548,41.107634 64.1863,41.045758 64.310065,40.983869 C 64.454429,40.922006 64.578181,40.849817 64.681321,40.767302 C 64.80506,40.684814 64.866937,40.561062 64.86695,40.396045 C 64.866937,40.107304 64.712246,39.890738 64.402879,39.746346 C 64.114111,39.581358 63.856294,39.498856 63.629427,39.498842 C 63.216908,39.498856 62.742525,39.612296 62.206276,39.83916 C 61.690631,40.066054 61.144059,40.375434 60.566558,40.767302 C 60.009665,41.159198 59.463093,41.602643 58.926841,42.097639 C 58.390574,42.59266 57.905878,43.108294 57.472751,43.644543 C 57.039613,44.160187 56.688982,44.686134 56.420857,45.222384 C 56.173348,45.738027 56.049596,46.21241 56.0496,46.645535 C 56.049596,46.893047 56.121785,47.109614 56.266167,47.295235 C 56.431165,47.48087 56.647731,47.63556 56.915866,47.759306 C 57.183991,47.862439 57.483058,47.944941 57.81307,48.00681 C 58.163695,48.068693 58.514326,48.099631 58.864965,48.099625 C 59.277464,48.099631 59.689972,48.068693 60.102487,48.00681 C 60.514986,47.924315 60.896555,47.800563 61.247196,47.635553"
       id="text2400" />
  </g>
</svg>
