<?xml version="1.0" encoding="UTF-8" standalone="no"?>
<!-- Created with Inkscape (http://www.inkscape.org/) -->
<svg
   xmlns:dc="http://purl.org/dc/elements/1.1/"
   xmlns:cc="http://web.resource.org/cc/"
   xmlns:rdf="http://www.w3.org/1999/02/22-rdf-syntax-ns#"
   xmlns:svg="http://www.w3.org/2000/svg"
   xmlns="http://www.w3.org/2000/svg"
   xmlns:sodipodi="http://sodipodi.sourceforge.net/DTD/sodipodi-0.dtd"
   xmlns:inkscape="http://www.inkscape.org/namespaces/inkscape"
   version="1.0"
   x="0.00000000"
   y="0.00000000"
   width="90"
   height="90"
   id="svg548"
   sodipodi:version="0.32"
   sodipodi:docname="media-playback-start.svg"
   sodipodi:docbase="/home/tweenk/GNUtoon/actions"
   inkscape:version="0.45.1"
   inkscape:output_extension="org.inkscape.output.svg.inkscape">
  <metadata
     id="metadata13">
    <rdf:RDF>
      <cc:Work
         rdf:about="">
        <dc:format>image/svg+xml</dc:format>
        <dc:type
           rdf:resource="http://purl.org/dc/dcmitype/StillImage" />
      </cc:Work>
    </rdf:RDF>
  </metadata>
  <sodipodi:namedview
     id="base"
     inkscape:zoom="5.3777778"
     inkscape:cx="45"
     inkscape:cy="45"
     inkscape:window-width="1014"
     inkscape:window-height="696"
     inkscape:window-x="0"
     inkscape:window-y="1"
     inkscape:current-layer="svg548"
     width="90px"
     height="90px" />
  <defs
     id="defs550" />
  <g
     transform="matrix(-1.868811,2.565309,2.565309,1.868811,68.4421,-154.98438)"
     style="font-size:12px"
     id="g584">
    <path
       d="M 51.9665,36.0486 C 53.9602,37.0454 65.4724,34.7713 65.7572,32.6353 C 66.172581,27.312501 55.6307,20.7151 54.0642,20.1455 C 52.4977,19.5759 51.1121,20.0634 50.6849,21.0602 C 50.2577,22.057 49.6881,35.3365 51.9665,36.0486 z "
       transform="matrix(1.369638,0,0,1.207417,-21.85404,-4.997635)"
       style="fill:#0d3c07;fill-rule:evenodd;stroke-width:1pt"
       id="path582"
       sodipodi:nodetypes="ccscc" />
    <path
       d="M 51.5506,35.4589 C 53.5443,36.4557 64.2247,34.8892 64.5095,32.7532 C 64.7943,30.6171 60.955464,29.668153 61.382664,28.244153 C 57.018216,23.149473 50.6962,21.3608 50.269,22.3576 C 49.8418,23.3544 49.2722,34.7468 51.5506,35.4589 z "
       style="fill:#2aaf18;fill-rule:evenodd;stroke-width:1pt"
       id="path581"
       sodipodi:nodetypes="ccccc" />
    <path
       d="M 61.9462,28.3386 C 63.5126,29.6202 65.3639,32.7531 64.3671,33.6076 C 62.6583,35.174 52.8323,36.3133 51.693,35.7437 C 50.5538,35.174 60.0949,33.4652 60.2373,31.0443 C 60.3797,28.6234 57.458082,27.995128 58.312482,26.571028 C 59.166882,25.147028 61.519,27.769 61.9462,28.3386 z "
       style="fill:#208c11;fill-rule:evenodd;stroke-width:1pt"
       id="path583"
       sodipodi:nodetypes="cccccc" />
  </g>
  <path
     d="M 57.000619,38.546647 C 57.000619,38.546647 42.059197,23.747637 38.338171,22.714427 C 34.617379,21.681431 36.704995,28.7941 36.704995,28.7941 C 36.704995,28.7941 55.607194,35.854009 57.000619,38.546647 z "
     style="font-size:12px;fill:#ffffff;fill-rule:evenodd;stroke-width:1pt"
     id="path589" />
</svg>
